<?xml version="1.0" encoding="UTF-8"?>
<svg id="Layer_1" xmlns="http://www.w3.org/2000/svg" version="1.1" viewBox="0 0 64 64">
  <!-- Generator: Adobe Illustrator 30.1.0, SVG Export Plug-In . SVG Version: 2.1.1 Build 136)  -->
  <defs>
    <style>
      .st0 {
        fill: #fff;
      }
    </style>
  </defs>
  <path class="st0" d="M.73,49.15v.11c1.25-.34,2.52-.96,3.63-1.61.54-.31,1.04-.61,1.5-.81,1.67-.68,3.12-.98,4.88-1.07.51-.04,1.02.09,1.58.09h.34c.13-.04.26-.13.34-.13.99-.51,1.46-1.2,1.84-2.22.09-.09.09-.13.09-.22.34-1.15.64-2.35.94-3.51.21-1.02.47-1.96.77-2.99.17-.6.21-.51.34-.9.13-.43.64-2.14.39-4.36-.09-.98-.26-.94-.26-1.71-.04-.81.09-1.63.39-2.57.59-1.92,1.41-3.12,2.86-5.22,1.11-1.58,2.23-4.44,2.87-6.5.21-.68.51-1.49.77-2.14.21-.64.47-1.15.72-1.75.22-.51.47-.98.65-1.5.04-.04.04-.08.04-.12v-.18c0-1.02-.52-1.45-1.54-1.54-1.16.18-2.31.43-3.47.69-.64.17-1.19.3-1.84.47-.21.04-.42.09-.68.13-.51.13-1.11.25-1.58.47-.13.08-.26.13-.39.26-.94.89-1.37,2.01-1.67,3.25-.04.21-.12.38-.12.51-.47,1.32-.73,2.22-1.12,3.08,0,0-.98,2.27-1.49,4.79,0,.3-.13.68,0,1.11.25.94,1.15,1.67,1.32,1.8.26.21.3.21.43.34.39.51.47.94.51,1.5v.17c-.04.17-.21.25-.25.25-.3.18-.86.6-1.07.95-.22.34-.3.89-.34,1.32-.09.51,0,.6-.13.77-.26.34-.94.43-1.37.34-.39-.08-.34-.21-.94-.38-.56-.17-.69-.09-1.07-.22-.3-.12-.47-.21-1.11-.77-.86-.72-1.29-1.06-1.37-1.24-.26-.55-.09-1.11.17-1.96.3-.94.85-1.71,1.62-2.53.22-.17.48-.3.6-.38.13-.09.13-.3.13-.43v-.38c0-.48.22-4.15.52-6.59.42-3.72.72-5.99,2.26-8.43.26-.38.6-.85,1.11-1.45.56-.6,2.1-2.14,7.4-3.77.99-.29,2.23-.64,3.77-.98.17-.04.13-.21,0-.21h16.19c-.14.07-.22.26-.15.42l.21.48c.6,1.36,2.44,2.26,3.76,3.07.22.13.69.43.82.6,1.92,2.1,2.86,4.54,3.8,7.15.35,1.02.73,2.26,1.16,3.2.77,1.76,1.02,3.17,2.95,3.9,1.2.42,2.22-.05,3.64-.39.59-.17,2.69-.9,3.42-1.07,1.07-.25,2.31-.55,3.25-1.07.3-.17.51-.51.51-.9v3.3c-1.75,1.2-3.72,2.52-5.35,3.59l.09-.13c-1.26.85-2.38,1.61-3.56,2.17-1.18.57-2.4.96-3.88,1.08-1.41-.81-1.93-1.45-2.95-2.95-.69-1.07-1.76-2.95-2.44-4.28-.17-.29-.43-.81-.6-1.19-.3-.64-.73-1.54-1.16-2.1-.42-.55-.77-.77-1.41-.94-.17-.04-.21,0-.38,0s-.39.13-.56.13c-.13.13-.25.38-.34.51-.43.73-.77,1.46-1.15,2.18-.35.64-.6,1.16-.95,1.76-.34.64-.68,1.19-1.11,1.84-.47.77-.9,1.41-1.45,2.35-.09.17-.52.94-.77,1.45-.43.86-.99,2.01-.26,3,.04.08.17.25.26.3.13.04.25.08.38.12.6.26,1.16.6,1.71.95h.05c1.88,1.19,3.63,2.43,5.47,3.72.26.21.51.38.9.64,1.92,1.32,4.32,2.95,5.82,4.66.68.81.42,1.11.85,1.88.09.13.09.22.09.34.9,2.7,1.71,5.44,2.52,8.13,1.03,3.51,2.1,6.93,3.25,10.39.04.18.09.3.17.52.56,1.45,1.07,2.78,2.36,3.63h-6.1c-.85-2.12-1.91-4.12-3.19-6.07l.17-.04c-.47-.69-.98-1.24-1.45-1.8-.94-1.15-1.84-2.18-2.35-3.51-.51-1.32-.56-2.56-.73-3.93-.08-.69-.13-1.41-.26-2.14v-.13c-.21-.64-.08-1.07-.59-1.71-.65-.86-1.89-1.41-2.91-1.84-.05,0-.17-.08-.22-.08-3.03-1.24-6.11-2.31-9.24-3.34-1.19-.39-2.35-.77-3.5-1.16-.05-.04-.13-.04-.17-.04h-.35c-.64.09-1.06.34-1.45.77,0,0-.04.04-.13.17-.21.3-.64,1.16-.81,1.63-.04.21-.21.6-.34.81-1.37,2.57-2.87,5.48-4.37,7.79-.81,1.24-1.02,2.01-2.13,2.82-1.12.77-1.8.73-3.3.98-1.79.3-4.23.43-6.28.56-1.72.13-3.64.21-5.35.43-.13,0-.17-.05-.34,0-.94.34-1.71.42-2.36.68-.21.09-.34.3-.34.51"/>
  <g>
    <path d="M25.41,9.84v.18s0,.08-.04.12c-.18.52-.43.99-.65,1.5-.25.6-.51,1.11-.72,1.75-.26.65-.56,1.46-.77,2.14-.64,2.06-1.76,4.92-2.87,6.5-1.45,2.1-2.27,3.3-2.86,5.22-.3.94-.43,1.76-.39,2.57,0,.77.17.73.26,1.71.25,2.22-.26,3.93-.39,4.36-.13.39-.17.3-.34.9-.3,1.03-.56,1.97-.77,2.99-.3,1.16-.6,2.36-.94,3.51,0,.09,0,.13-.09.22-.38,1.02-.85,1.71-1.84,2.22-.08,0-.21.09-.34.13h-.34c-.56,0-1.07-.13-1.58-.09-1.76.09-3.21.39-4.88,1.07-.46.2-.96.5-1.5.81-1.11.65-2.38,1.27-3.62,1.61v-.11s-.01-46.36-.01-46.36C.73,1.68,1.64.78,2.74.78h20.96c.13,0,.17.17,0,.21-1.54.34-2.78.69-3.77.98-5.3,1.63-6.84,3.17-7.4,3.77-.51.6-.85,1.07-1.11,1.45-1.54,2.44-1.84,4.71-2.26,8.43-.3,2.44-.52,6.11-.52,6.59v.38c0,.13,0,.34-.13.43-.12.08-.38.21-.6.38-.77.82-1.32,1.59-1.62,2.53-.26.85-.43,1.41-.17,1.96.08.18.51.52,1.37,1.24.64.56.81.65,1.11.77.38.13.51.05,1.07.22.6.17.55.3.94.38.43.09,1.11,0,1.37-.34.13-.17.04-.26.13-.77.04-.43.12-.98.34-1.32.21-.35.77-.77,1.07-.95.04,0,.21-.08.25-.25v-.17c-.04-.56-.12-.99-.51-1.5-.13-.13-.17-.13-.43-.34-.17-.13-1.07-.86-1.32-1.8-.13-.43,0-.81,0-1.11.51-2.52,1.49-4.79,1.49-4.79.39-.86.65-1.76,1.12-3.08,0-.13.08-.3.12-.51.3-1.24.73-2.36,1.67-3.25.13-.13.26-.18.39-.26.47-.22,1.07-.34,1.58-.47.26-.04.47-.09.68-.13.65-.17,1.2-.3,1.84-.47,1.16-.26,2.31-.51,3.47-.69,1.02.09,1.54.52,1.54,1.54Z"/>
    <path d="M52.78,63.27H2.78c-.15,0-.3-.02-.45-.05-.89-.2-1.56-1-1.56-1.96v-6.68c0-.21.13-.42.34-.51.65-.26,1.42-.34,2.36-.68.17-.05.21,0,.34,0,1.71-.22,3.63-.3,5.35-.43,2.05-.13,4.49-.26,6.28-.56,1.5-.25,2.18-.21,3.3-.98,1.11-.81,1.32-1.58,2.13-2.82,1.5-2.31,3-5.22,4.37-7.79.13-.21.3-.6.34-.81.17-.47.6-1.33.81-1.63.09-.13.13-.17.13-.17.39-.43.81-.68,1.45-.77h.35s.12,0,.17.04c1.15.39,2.31.77,3.5,1.16,3.13,1.03,6.21,2.1,9.24,3.34.05,0,.17.08.22.08,1.02.43,2.26.98,2.91,1.84.51.64.38,1.07.59,1.71v.13c.13.73.18,1.45.26,2.14.17,1.37.22,2.61.73,3.93.51,1.33,1.41,2.36,2.35,3.51.47.56.98,1.11,1.45,1.8l-.17.04c1.28,1.95,2.34,3.95,3.19,6.07,0,.02,0,.03.02.05Z"/>
    <path d="M63.27,2.74v13.43c0,.39-.21.73-.51.9-.94.52-2.18.82-3.25,1.07-.73.17-2.83.9-3.42,1.07-1.42.34-2.44.81-3.64.39-1.93-.73-2.18-2.14-2.95-3.9-.43-.94-.81-2.18-1.16-3.2-.94-2.61-1.88-5.05-3.8-7.15-.13-.17-.6-.47-.82-.6-1.32-.81-3.16-1.71-3.76-3.07l-.21-.48c-.07-.16.01-.35.15-.42.05-.03.1-.05.15-.05h21.21c.15,0,.3.02.44.05.9.2,1.57,1,1.57,1.96Z"/>
    <path d="M63.27,19.47v41.74c0,1.11-.9,2.01-2.01,2.01h-2.39c-1.29-.85-1.8-2.18-2.36-3.63-.08-.22-.13-.34-.17-.52-1.15-3.46-2.22-6.88-3.25-10.39-.81-2.69-1.62-5.43-2.52-8.13,0-.12,0-.21-.09-.34-.43-.77-.17-1.07-.85-1.88-1.5-1.71-3.9-3.34-5.82-4.66-.39-.26-.64-.43-.9-.64-1.84-1.29-3.59-2.53-5.47-3.72h-.05c-.55-.35-1.11-.69-1.71-.95-.13-.04-.25-.08-.38-.12-.09-.05-.22-.22-.26-.3-.73-.99-.17-2.14.26-3,.25-.51.68-1.28.77-1.45.55-.94.98-1.58,1.45-2.35.43-.65.77-1.2,1.11-1.84.35-.6.6-1.12.95-1.76.38-.72.72-1.45,1.15-2.18.09-.13.21-.38.34-.51.17,0,.39-.13.56-.13s.21-.04.38,0c.64.17.99.39,1.41.94.43.56.86,1.46,1.16,2.1.17.38.43.9.6,1.19.68,1.33,1.75,3.21,2.44,4.28,1.02,1.5,1.54,2.14,2.95,2.95,1.48-.12,2.7-.51,3.88-1.08,1.18-.56,2.3-1.32,3.56-2.17l-.09.13c1.63-1.07,3.6-2.39,5.35-3.59Z"/>
  </g>
</svg>