<?xml version="1.0" encoding="UTF-8"?>
<svg xmlns="http://www.w3.org/2000/svg" version="1.1" viewBox="0 0 662.8 164.2">
  <!-- Generator: Adobe Illustrator 29.5.0, SVG Export Plug-In . SVG Version: 2.1.0 Build 137)  -->
  <defs>
    <style>
      .st0 {
        font-family: OpenSauceOne-Light, 'Open Sauce One';
        font-size: 48.6px;
        font-weight: 300;
      }

      .st1 {
        font-family: OpenSauceOne-Black, 'Open Sauce One';
        font-weight: 800;
      }

      .st2 {
        font-size: 87.7px;
      }

      .st3 {
        display: none;
      }

      .st4 {
        font-family: OpenSauceOne-Regular, 'Open Sauce One';
        letter-spacing: 0em;
      }
    </style>
  </defs>
  <g id="Layer_1" class="st3">
    <text class="st2" transform="translate(167.7 81.8)"><tspan class="st1" x="0" y="0">Frame</tspan><tspan class="st4" x="277.9" y="0">Rush</tspan></text>
    <text class="st0" transform="translate(169.8 149)"><tspan x="0" y="0">motion design studio</tspan></text>
    <g>
      <path d="M-11.1,118.4c-2.6,1.5-5.3,2.9-8.2,3.7s-.3,0-.3-.2V13.4c0-2.6,2.1-4.7,4.7-4.7h49c.3,0,.4.4,0,.5-3.6.8-6.5,1.6-8.8,2.3-12.4,3.8-16,7.4-17.3,8.9-1.2,1.4-2,2.5-2.6,3.4C2,29.4,1.3,34.7.3,43.4c-.7,5.8-1.2,14.3-1.2,15.4,0,0,0,.6,0,.9s0,.8-.3,1-1,.5-1.4.9c-1.8,1.9-3.1,3.7-3.8,5.9-.6,2-1,3.3-.4,4.6.2.4,1.2,1.2,3.2,2.9,1.5,1.3,1.9,1.5,2.6,1.8.9.3,1.2.1,2.5.5,1.4.4,1.3.7,2.2.9,1,.2,2.6,0,3.3-.8.3-.4.1-.6.3-1.8.1-1,.3-2.3.8-3.1.5-.8,1.8-1.8,2.5-2.2.1,0,.5-.2.6-.6,0-.2,0-.3,0-.4-.1-1.3-.3-2.3-1.2-3.5-.3-.3-.4-.3-1-.8-.4-.3-2.5-2-3.1-4.2-.3-1.1,0-1.9,0-2.6,1.2-5.9,3.5-11.3,3.5-11.3.9-2,1.5-4.1,2.6-7.2,0-.3.2-.7.3-1.2.7-2.9,1.7-5.5,3.9-7.6.3-.3.6-.4.9-.6,1.1-.5,2.5-.8,3.7-1.1.6-.1,1.1-.2,1.6-.3,1.5-.4,2.8-.7,4.3-1.1,2.7-.6,5.4-1.2,8.1-1.6,2.4.2,3.6,1.2,3.6,3.6,0,.3,0,.2,0,.4,0,.1,0,.2-.1.3-.4,1.2-1,2.3-1.5,3.5-.6,1.4-1.2,2.6-1.7,4.1-.6,1.5-1.3,3.4-1.8,5-1.5,4.8-4.1,11.5-6.7,15.2-3.4,4.9-5.3,7.7-6.7,12.2-.7,2.2-1,4.1-.9,6,0,1.8.4,1.7.6,4,.6,5.3-.6,9.2-.9,10.3-.3.9-.4.7-.8,2.1-.7,2.4-1.3,4.6-1.8,7-.7,2.7-1.4,5.5-2.2,8.2,0,.2,0,.3-.2.5-.9,2.4-2,4-4.4,5.2-.2,0-.5.2-.8.3-.2,0-.6,0-.8,0-1.3,0-2.5-.3-3.7-.2-4.1.2-7.5.9-11.4,2.5-1.2.5-2.5,1.3-3.9,2.1Z"/>
      <path d="M94.7,140.6c3,4.6,5.5,9.3,7.5,14.3H-14.8c-2.6,0-4.7-2.1-4.7-4.7v-15.6c0-.5.3-1,.8-1.2,1.5-.6,3.3-.8,5.5-1.6.4-.1.5,0,.8,0,4-.5,8.5-.7,12.5-1,4.8-.3,10.5-.6,14.8-1.3,3.5-.6,5.1-.5,7.7-2.3,2.6-1.9,3.1-3.7,5-6.6,3.5-5.4,7-12.2,10.2-18.2.3-.5.7-1.4.8-1.9.4-1.1,1.4-3.1,1.9-3.8.2-.3.3-.4.3-.4h0c.9-1,1.9-1.6,3.4-1.8.2,0,.2,0,.4,0,.1,0,.3,0,.4,0,.1,0,.3,0,.4.1,2.7.9,5.4,1.8,8.2,2.7,7.3,2.4,14.5,4.9,21.6,7.8.1,0,.4.2.5.2,2.4,1,5.3,2.4,6.8,4.3,1.2,1.5.9,2.5,1.4,4,0,.1,0,.2,0,.3.3,1.7.4,3.4.6,5,.4,3.2.5,6.1,1.7,9.2,1.2,3.1,3.3,5.5,5.5,8.2,1.1,1.3,2.3,2.6,3.4,4.2Z"/>
      <path d="M126.7,13.4v31.3c0,.9-.5,1.7-1.2,2.1-2.2,1.2-5.1,1.9-7.6,2.5-1.7.4-6.6,2.1-8,2.5-3.3.8-5.7,1.9-8.5.9-4.5-1.7-5.1-5-6.9-9.1-1-2.2-1.9-5.1-2.7-7.5-2.2-6.1-4.4-11.8-9-16.7-.3-.4-1.4-1.1-1.9-1.4-3.1-1.9-7.4-4-8.8-7.2l-.5-1.1c-.2-.5.2-1.1.7-1.1h49.7c2.6,0,4.7,2.1,4.7,4.7Z"/>
      <path d="M114.2,60.9c3.8-2.5,8.4-5.6,12.5-8.4v97.7c0,2.6-2.1,4.7-4.7,4.7h-5.6c-3-2.1-4.2-5.1-5.5-8.5-.2-.5-.3-.8-.4-1.2-2.7-8.1-5.2-16.2-7.6-24.3-1.9-6.4-3.8-12.7-5.9-19,0-.3,0-.5-.2-.8-1-1.8-.4-2.5-2-4.4-3.5-4-9.1-7.8-13.6-10.9-.9-.6-1.5-1-2.1-1.5-4.3-3-8.4-5.9-12.8-8.7,0,0,0,0-.1,0-1.3-.8-2.6-1.6-4-2.2-.3-.1-.6-.2-.9-.3-.2-.1-.5-.5-.6-.7-1.7-2.3-.4-5,.6-7,.6-1.2,1.6-3,1.8-3.4,1.3-2.2,2.3-3.7,3.4-5.5,1-1.5,1.8-2.8,2.6-4.3.8-1.4,1.4-2.6,2.2-4.1.9-1.7,1.7-3.4,2.7-5.1.2-.3.5-.9.8-1.2.4,0,.9-.3,1.3-.3.4,0,.5-.1.9,0,1.5.4,2.3.9,3.3,2.2,1,1.3,2,3.4,2.7,4.9.4.9,1,2.1,1.4,2.8,1.6,3.1,4.1,7.5,5.7,10,2.4,3.5,3.6,5,6.9,6.9,0,0,0,0,0,0,6.9-.6,11.5-3.6,17.4-7.6Z"/>
    </g>
  </g>
  <g id="Layer_2">
    <g>
      <g>
        <path d="M211.8,79.9h-15.7V13.1h45.6v14h-30v12.4h27.1v13.9h-27.1v26.4Z"/>
        <path d="M246.7,79.9V30.2h14.7v5.3c1.6-2.4,3.4-4.1,5.4-5,2-.9,4.5-1.4,7.3-1.4h2.2v14h-2.8c-3.7,0-6.5.9-8.4,2.6-1.3,1.2-2.2,2.9-2.8,5-.6,2.1-.9,4.8-.9,8.1v20.9h-14.7Z"/>
        <path d="M285.3,77.1c-3.1-2.6-4.6-6.3-4.6-11.1s2.1-9.3,6.2-12c1.6-1,3.3-1.8,5.2-2.4,1.9-.6,4.1-1.1,6.5-1.6l12.9-2.3c-.2-2.5-.8-4.4-2-5.8-1.1-1.2-2.8-1.8-5-1.8s-3.3.6-4.7,1.8c-1.4,1.2-2.3,2.8-2.6,4.8h-14.6c.6-4,2-7.3,4.2-9.9,2.2-2.6,4.8-4.6,8-5.8,3.1-1.3,6.4-1.9,9.9-1.9s5.9.4,8.5,1.2c2.7.8,4.9,2,6.9,3.7,1.9,1.6,3.3,3.6,4.2,5.8.9,2.2,1.4,4.5,1.6,6.9.2,2.4.3,5.6.3,9.5v23.6h-14.7v-6c-.8,1.9-2,3.4-3.5,4.5-2.5,1.8-6.2,2.6-10.9,2.6s-8.6-1.3-11.7-3.9ZM306.6,68.6c1.9-.9,3.2-2.1,3.9-3.7.7-1.6,1.1-3.8,1.2-6.7l-9,1.8c-1.6.3-2.9.6-3.8,1-.9.4-1.7.8-2.2,1.4-.9.9-1.3,1.9-1.3,3.2s.6,2.6,1.7,3.3c1.1.7,2.5,1.1,4.2,1.1s3.5-.4,5.3-1.2Z"/>
        <path d="M335.3,79.9V30.2h14.7v5.3c2.9-4.3,7.2-6.4,12.7-6.4s10.9,2.4,12.6,7.2c1.5-2.4,3.4-4.2,5.6-5.4,2.2-1.2,4.9-1.8,8.2-1.8,5.4,0,9.5,1.6,12.2,4.8,2.7,3.2,4,7.6,4,13.2v32.8h-14.7v-31.4c0-2.7-.5-4.6-1.5-5.7s-2.6-1.7-4.8-1.7-3.7.6-4.6,1.8c-.7.8-1.2,1.9-1.5,3.2-.3,1.3-.4,3.1-.4,5.2v28.7h-14.7v-31.4c0-2.7-.5-4.6-1.6-5.7s-2.7-1.7-4.9-1.7-3.6.6-4.6,1.8c-.7.8-1.2,1.9-1.5,3.2-.3,1.3-.4,3-.4,5.2v28.7h-14.7Z"/>
        <path d="M424.8,77.7c-3.9-2.2-7-5.2-9.1-9.1-2.1-3.9-3.2-8.2-3.2-13.1s.9-8.7,2.8-12.7c1.8-4,4.7-7.3,8.5-9.8,3.8-2.5,8.6-3.8,14.2-3.8s8.9.9,12.7,2.7c3.9,1.8,7,4.7,9.4,8.7,2.4,4,3.5,9,3.5,15.1v2.5h-35.7c.2,1.2.5,2.4,1,3.5.5,1.1,1,2.1,1.6,2.8,2,2.5,4.9,3.8,8.8,3.8s4-.5,5.6-1.6c1.5-1.1,2.6-2.4,3.3-4h14.8c-1.5,5.4-4.3,9.8-8.4,13.1-4.1,3.4-9.4,5.1-16,5.1s-9.7-1.1-13.6-3.3ZM448.8,47.8c-.4-1.8-1.2-3.3-2.4-4.5-1.9-1.9-4.6-2.9-7.9-2.9s-6,1-7.9,2.9c-1.2,1.2-2,2.7-2.3,4.5h20.4Z"/>
        <path d="M471.3,79.9V30.2h14.7v5.3c1.6-2.4,3.4-4.1,5.4-5,2-.9,4.5-1.4,7.3-1.4h2.2v14h-2.8c-3.7,0-6.5.9-8.4,2.6-1.3,1.2-2.2,2.9-2.8,5-.6,2.1-.9,4.8-.9,8.1v20.9h-14.7Z"/>
        <path d="M508.8,72.4c-.8-1.7-1.3-3.5-1.5-5.4-.3-1.9-.4-4.9-.4-9v-27.8h14.7v27.9c0,2.5.2,4.4.5,5.8.3,1.4.9,2.5,1.6,3.3,1.2,1.2,3,1.8,5.4,1.8s5.2-.8,6.6-2.5c.6-.9,1.1-2,1.4-3.3.3-1.3.4-3,.4-5.1v-27.9h14.7v49.7h-14.7v-5.3c-1.5,2.2-3.3,3.8-5.3,4.9-2,1-4.5,1.5-7.4,1.5-8.1,0-13.5-2.9-16-8.6Z"/>
        <path d="M573.2,79.2c-3.5-1.2-6.6-3.2-9.1-5.9-2.5-2.7-4-6.2-4.6-10.6h14.3c.8,2.3,2.1,4.1,3.9,5.3,1.9,1.2,3.9,1.8,6.2,1.8s3.7-.4,5-1.2c1.3-.8,2-1.9,2-3.2s-.8-2.6-2.5-3.3-4.2-1.4-7.8-2.1c-3.9-.8-7.2-1.6-9.7-2.5-2.6-.9-4.8-2.4-6.7-4.5-1.9-2.1-2.8-5-2.8-8.6,0-5.1,1.9-8.9,5.7-11.4,3.8-2.5,8.6-3.7,14.3-3.7s11.2,1.5,15.3,4.6c4.1,3.1,6.6,7.4,7.5,12.9h-13.9c-.6-2.2-1.8-3.9-3.4-4.9-1.6-1.1-3.5-1.6-5.5-1.6s-3.3.4-4.3,1.1c-1.1.7-1.6,1.6-1.6,2.7s.8,2.6,2.5,3.3c1.7.7,4.3,1.3,7.9,2,4,.7,7.3,1.5,9.9,2.4,2.6.9,4.9,2.3,6.8,4.4,1.9,2,2.8,4.8,2.8,8.4s-.9,6.2-2.6,8.7c-1.7,2.5-4.2,4.5-7.4,5.8-3.2,1.4-7,2.1-11.3,2.1s-7.5-.6-11-1.8Z"/>
        <path d="M613.3,79.9V13.1h14.7v22.5c1.6-2.4,3.4-4.1,5.4-5,2-.9,4.5-1.4,7.3-1.4,8.2,0,13.5,2.9,16,8.6.9,1.9,1.4,3.9,1.6,5.8.2,2,.3,4.8.3,8.5v27.8h-14.7v-27.9c0-2.5-.2-4.4-.5-5.8-.3-1.4-.9-2.5-1.6-3.3-1.2-1.2-3-1.8-5.4-1.8s-5.3.8-6.6,2.5c-1.2,1.6-1.8,4.4-1.8,8.4v27.9h-14.7Z"/>
      </g>
      <g>
        <path d="M196.3,146.7v-26.1h3.1v3.9c.7-1.3,1.7-2.3,3-3.1,1.4-.8,3-1.2,4.8-1.2s3.5.5,4.9,1.4c1.4.9,2.3,2.3,2.8,4.1.8-1.8,2-3.2,3.5-4.1,1.5-.9,3.2-1.4,5.1-1.4,2.9,0,5,.8,6.4,2.5,1.4,1.7,2.1,4,2.1,7.1v17h-3.1v-16.2c0-2.3-.5-4.2-1.4-5.5-.9-1.4-2.3-2.1-4.3-2.1s-4.3,1-5.6,2.9c-.6,1-1.1,2.2-1.5,3.6-.3,1.4-.5,3.2-.5,5.4v11.9h-3.1v-16.2c0-2.3-.5-4.2-1.5-5.5-1-1.4-2.4-2.1-4.3-2.1s-4.2,1-5.6,3c-.7,1-1.2,2.1-1.5,3.6-.3,1.4-.5,3.2-.5,5.4v11.9h-3.1Z"/>
        <path d="M243.7,145.4c-1.9-1.2-3.4-2.8-4.5-4.9-1.1-2.1-1.6-4.4-1.6-7s.5-4.8,1.6-6.9c1.1-2,2.6-3.6,4.5-4.8,1.9-1.2,4-1.8,6.4-1.8s4.5.6,6.4,1.8c1.9,1.2,3.4,2.8,4.5,4.8,1.1,2,1.6,4.3,1.6,6.9s-.5,4.9-1.6,7c-1.1,2.1-2.6,3.7-4.5,4.9-1.9,1.2-4.1,1.8-6.5,1.8s-4.5-.6-6.4-1.8ZM254.9,143c1.5-1,2.6-2.3,3.4-3.9.8-1.6,1.2-3.5,1.2-5.6s-.4-3.8-1.2-5.4c-.8-1.6-2-2.9-3.4-3.8-1.4-.9-3.1-1.4-4.9-1.4s-3.4.5-4.8,1.4c-1.4.9-2.6,2.2-3.4,3.8-.8,1.6-1.2,3.5-1.2,5.5s.4,3.9,1.2,5.6c.8,1.7,2,3,3.4,3.9,1.4.9,3,1.4,4.8,1.4s3.4-.5,4.9-1.4Z"/>
        <path d="M275.7,146.7c-2.1,0-3.6-.5-4.5-1.4-.9-.9-1.4-2.7-1.4-5.2v-16.8h-4.2v-2.8h4.2v-10.2h3.1v10.2h6.1v2.8h-6.1v16.2c0,1.1,0,2,.2,2.6.1.6.5,1,1,1.4.5.3,1.3.5,2.3.5h2.6v2.8h-3.3Z"/>
        <path d="M284.1,113.8c-.5-.5-.7-1-.7-1.6s.2-1.2.7-1.6,1-.7,1.6-.7,1.2.2,1.6.7c.5.4.7,1,.7,1.6s-.2,1.2-.7,1.6c-.5.5-1,.7-1.6.7s-1.2-.2-1.6-.7ZM287.3,146.7h-3.1v-26.1h3.1v26.1Z"/>
        <path d="M299.1,145.4c-1.9-1.2-3.4-2.8-4.5-4.9-1.1-2.1-1.6-4.4-1.6-7s.5-4.8,1.6-6.9c1.1-2,2.6-3.6,4.5-4.8,1.9-1.2,4-1.8,6.4-1.8s4.5.6,6.4,1.8c1.9,1.2,3.4,2.8,4.5,4.8,1.1,2,1.6,4.3,1.6,6.9s-.5,4.9-1.6,7c-1.1,2.1-2.6,3.7-4.5,4.9-1.9,1.2-4.1,1.8-6.5,1.8s-4.5-.6-6.4-1.8ZM310.4,143c1.5-1,2.6-2.3,3.4-3.9.8-1.6,1.2-3.5,1.2-5.6s-.4-3.8-1.2-5.4c-.8-1.6-2-2.9-3.4-3.8-1.4-.9-3.1-1.4-4.9-1.4s-3.4.5-4.8,1.4c-1.4.9-2.6,2.2-3.4,3.8-.8,1.6-1.2,3.5-1.2,5.5s.4,3.9,1.2,5.6c.8,1.7,2,3,3.4,3.9,1.4.9,3,1.4,4.8,1.4s3.4-.5,4.9-1.4Z"/>
        <path d="M323.9,146.7v-26.1h3.1v4.4c1-1.7,2.3-2.9,3.7-3.7,1.4-.8,3-1.2,4.9-1.2s3,.4,4.2,1.1c1.2.7,2.2,1.7,2.9,2.9.6,1,.9,2,1.1,3,.1,1,.2,2.2.2,3.5v16h-3.1v-16.2c0-2.3-.4-4-1.1-5.2-1-1.6-2.6-2.4-4.8-2.4s-3.7.7-5,2.1c-1,1.1-1.7,2.5-2.2,4.3-.5,1.8-.7,4.1-.7,7.1v10.3h-3.1Z"/>
        <path d="M368.2,145.4c-1.7-1.2-3.1-2.8-4-4.8-1-2-1.4-4.4-1.4-7s.5-5,1.4-7,2.3-3.6,4-4.8c1.7-1.2,3.7-1.7,6-1.7s3.6.5,5.2,1.4c1.6.9,3,2.2,4.1,4v-15h3.1v36.3h-3.1v-4.9c-1.2,1.7-2.5,3-4.1,4s-3.3,1.4-5.2,1.4-4.2-.6-6-1.7ZM379.1,143c1.4-.9,2.5-2.2,3.3-3.9.8-1.6,1.2-3.5,1.2-5.5s-.4-3.9-1.2-5.5c-.8-1.6-1.9-2.9-3.3-3.9-1.4-.9-2.9-1.4-4.7-1.4s-3.3.5-4.6,1.4c-1.3.9-2.3,2.2-3,3.9-.7,1.6-1,3.5-1,5.5s.3,3.9,1,5.5c.7,1.6,1.7,2.9,3,3.9,1.3.9,2.8,1.4,4.6,1.4s3.3-.5,4.7-1.4Z"/>
        <path d="M397.1,145.4c-1.9-1.2-3.4-2.8-4.5-4.9-1.1-2.1-1.6-4.4-1.6-6.9s.5-4.7,1.5-6.8,2.5-3.7,4.4-5c1.9-1.2,4.1-1.9,6.5-1.9s4.4.5,6.2,1.6c1.8,1.1,3.2,2.5,4.3,4.4,1,1.9,1.7,4,1.9,6.5,0,.3,0,.9,0,1.6h-21.8c0,1.2.3,2.4.8,3.6.7,2.1,1.9,3.7,3.4,4.9,1.5,1.2,3.3,1.8,5.3,1.8s3.8-.6,5.3-1.7c1.5-1.1,2.6-2.5,3.2-4.3h3.3c-.8,2.6-2.2,4.7-4.2,6.3-2,1.6-4.6,2.4-7.6,2.4s-4.5-.6-6.4-1.8ZM412.9,131.7c-.2-1.3-.5-2.4-.9-3.2-.8-1.7-1.9-3.1-3.4-4.1s-3.2-1.5-5.1-1.5-3.6.5-5,1.4c-1.4.9-2.5,2.3-3.3,4-.5,1-.8,2.2-1,3.4h18.6Z"/>
        <path d="M423.8,144.9c-2-1.5-3.1-3.7-3.5-6.4h3.1c.3,1.9,1.1,3.3,2.5,4.4s3.4,1.6,5.9,1.6,3.7-.4,4.9-1.2c1.2-.8,1.8-2,1.8-3.5s-.4-2.1-1.1-2.8c-.7-.7-1.6-1.2-2.6-1.5-1-.3-2.5-.7-4.2-1-2-.4-3.6-.8-4.9-1.2-1.2-.4-2.3-1.1-3.1-2-.9-.9-1.3-2.2-1.3-3.8,0-2.3.9-4.1,2.6-5.4s4-1.9,6.7-1.9,5.1.7,6.9,2.2c1.8,1.5,2.9,3.4,3.3,5.9h-3.1c-.3-1.7-1-3-2.3-4-1.2-.9-2.8-1.4-4.8-1.4s-3.5.4-4.5,1.1c-1.1.7-1.6,1.8-1.6,3.1s.3,1.8,1,2.4c.7.6,1.5,1.1,2.4,1.4,1,.3,2.3.6,4,.9,2.1.4,3.8.9,5.1,1.3,1.3.4,2.4,1.2,3.3,2.2.9,1,1.4,2.4,1.4,4.2s-.9,4.3-2.6,5.7c-1.7,1.4-4.2,2.1-7.3,2.1s-5.9-.8-7.9-2.3Z"/>
        <path d="M447.3,113.8c-.5-.5-.7-1-.7-1.6s.2-1.2.7-1.6,1-.7,1.6-.7,1.2.2,1.6.7.7,1,.7,1.6-.2,1.2-.7,1.6c-.5.5-1,.7-1.6.7s-1.2-.2-1.6-.7ZM450.5,146.7h-3.1v-26.1h3.1v26.1Z"/>
        <path d="M457.1,149.4h3.1c.5,1.8,1.5,3.1,2.8,4s3.2,1.3,5.6,1.3,5.1-.7,6.5-2c1.4-1.3,2-3.2,2-5.8v-5c-1.2,1.7-2.6,3.1-4.1,4-1.6.9-3.3,1.4-5.2,1.4s-4.2-.6-6-1.7c-1.7-1.2-3.1-2.8-4-4.8-1-2.1-1.4-4.4-1.4-7s.5-4.9,1.4-7,2.3-3.6,4-4.8c1.7-1.1,3.7-1.7,6-1.7s3.6.5,5.2,1.4c1.6.9,2.9,2.2,4.1,4v-4.9h3.1v25.8c0,3.8-1,6.6-3,8.4-2,1.7-4.8,2.6-8.6,2.6-6.3,0-10.1-2.7-11.5-8ZM472.7,143c1.4-.9,2.5-2.2,3.3-3.9.8-1.6,1.2-3.5,1.2-5.5s-.4-3.9-1.2-5.5c-.8-1.6-1.9-2.9-3.3-3.9-1.4-.9-2.9-1.4-4.7-1.4s-3.3.5-4.6,1.4-2.3,2.2-3,3.9-1,3.5-1,5.5.3,3.9,1,5.5c.7,1.6,1.7,2.9,3,3.9,1.3.9,2.8,1.4,4.6,1.4s3.3-.5,4.7-1.4Z"/>
        <path d="M486.9,146.7v-26.1h3.1v4.4c1-1.7,2.3-2.9,3.7-3.7,1.4-.8,3-1.2,4.9-1.2s3,.4,4.2,1.1c1.2.7,2.2,1.7,2.9,2.9.6,1,.9,2,1.1,3,.1,1,.2,2.2.2,3.5v16h-3.1v-16.2c0-2.3-.4-4-1.1-5.2-1-1.6-2.6-2.4-4.8-2.4s-3.7.7-5,2.1c-1,1.1-1.7,2.5-2.2,4.3-.5,1.8-.7,4.1-.7,7.1v10.3h-3.1Z"/>
        <path d="M529.1,144.9c-2-1.5-3.1-3.7-3.5-6.4h3.1c.3,1.9,1.1,3.3,2.5,4.4s3.4,1.6,5.9,1.6,3.7-.4,4.9-1.2c1.2-.8,1.8-2,1.8-3.5s-.4-2.1-1.1-2.8c-.7-.7-1.6-1.2-2.6-1.5-1-.3-2.5-.7-4.2-1-2-.4-3.6-.8-4.9-1.2-1.2-.4-2.3-1.1-3.1-2-.9-.9-1.3-2.2-1.3-3.8,0-2.3.9-4.1,2.6-5.4s4-1.9,6.7-1.9,5.1.7,6.9,2.2c1.8,1.5,2.9,3.4,3.3,5.9h-3.1c-.3-1.7-1-3-2.3-4-1.2-.9-2.8-1.4-4.8-1.4s-3.5.4-4.5,1.1c-1.1.7-1.6,1.8-1.6,3.1s.3,1.8,1,2.4c.7.6,1.5,1.1,2.4,1.4,1,.3,2.3.6,4,.9,2.1.4,3.8.9,5.1,1.3,1.3.4,2.4,1.2,3.3,2.2.9,1,1.4,2.4,1.4,4.2s-.9,4.3-2.6,5.7c-1.7,1.4-4.2,2.1-7.3,2.1s-5.9-.8-7.9-2.3Z"/>
        <path d="M560.3,146.7c-2.1,0-3.6-.5-4.5-1.4-.9-.9-1.4-2.7-1.4-5.2v-16.8h-4.2v-2.8h4.2v-10.2h3.1v10.2h6.1v2.8h-6.1v16.2c0,1.1,0,2,.2,2.6.1.6.5,1,1,1.4s1.3.5,2.3.5h2.6v2.8h-3.3Z"/>
        <path d="M572.8,146.1c-1.2-.7-2.2-1.7-2.9-3-.9-1.5-1.3-3.7-1.3-6.6v-16h3.1v16.2c0,2.3.4,4,1.1,5.2,1,1.6,2.6,2.4,4.8,2.4s1.9-.2,2.8-.5c.9-.4,1.6-.9,2.2-1.6,1-1.1,1.7-2.5,2.2-4.4.5-1.8.7-4.2.7-7v-10.3h3.1v26.1h-3.1v-4.4c-1,1.7-2.3,2.9-3.7,3.7-1.4.8-3,1.2-4.9,1.2s-2.9-.3-4.1-1Z"/>
        <path d="M599.8,145.4c-1.7-1.2-3.1-2.8-4-4.8-1-2-1.4-4.4-1.4-7s.5-5,1.4-7,2.3-3.6,4-4.8c1.7-1.2,3.7-1.7,6-1.7s3.6.5,5.2,1.4c1.6.9,3,2.2,4.1,4v-15h3.1v36.3h-3.1v-4.9c-1.2,1.7-2.5,3-4.1,4s-3.3,1.4-5.2,1.4-4.2-.6-6-1.7ZM610.8,143c1.4-.9,2.5-2.2,3.3-3.9.8-1.6,1.2-3.5,1.2-5.5s-.4-3.9-1.2-5.5c-.8-1.6-1.9-2.9-3.3-3.9-1.4-.9-2.9-1.4-4.7-1.4s-3.3.5-4.6,1.4c-1.3.9-2.3,2.2-3,3.9-.7,1.6-1,3.5-1,5.5s.3,3.9,1,5.5c.7,1.6,1.7,2.9,3,3.9,1.3.9,2.8,1.4,4.6,1.4s3.3-.5,4.7-1.4Z"/>
        <path d="M625,113.8c-.5-.5-.7-1-.7-1.6s.2-1.2.7-1.6,1-.7,1.6-.7,1.2.2,1.6.7.7,1,.7,1.6-.2,1.2-.7,1.6c-.5.5-1,.7-1.6.7s-1.2-.2-1.6-.7ZM628.2,146.7h-3.1v-26.1h3.1v26.1Z"/>
        <path d="M640,145.4c-1.9-1.2-3.4-2.8-4.5-4.9-1.1-2.1-1.6-4.4-1.6-7s.5-4.8,1.6-6.9c1.1-2,2.6-3.6,4.5-4.8,1.9-1.2,4-1.8,6.4-1.8s4.5.6,6.5,1.8c1.9,1.2,3.4,2.8,4.5,4.8,1.1,2,1.6,4.3,1.6,6.9s-.5,4.9-1.6,7c-1.1,2.1-2.6,3.7-4.5,4.9-1.9,1.2-4.1,1.8-6.5,1.8s-4.5-.6-6.4-1.8ZM651.2,143c1.5-1,2.6-2.3,3.4-3.9.8-1.6,1.2-3.5,1.2-5.6s-.4-3.8-1.2-5.4-2-2.9-3.4-3.8-3.1-1.4-4.9-1.4-3.4.5-4.8,1.4c-1.4.9-2.6,2.2-3.4,3.8-.8,1.6-1.2,3.5-1.2,5.5s.4,3.9,1.2,5.6,2,3,3.4,3.9c1.4.9,3,1.4,4.8,1.4s3.4-.5,4.9-1.4Z"/>
      </g>
      <g>
        <path d="M12.2,116.5c-2.6,1.5-5.3,2.9-8.2,3.7s-.3,0-.3-.2V11.6c0-2.6,2.1-4.7,4.7-4.7h49c.3,0,.4.4,0,.5-3.6.8-6.5,1.6-8.8,2.3-12.4,3.8-16,7.4-17.3,8.8-1.2,1.4-2,2.5-2.6,3.4-3.6,5.7-4.3,11-5.3,19.7-.7,5.7-1.2,14.3-1.2,15.4,0,0,0,.6,0,.9s0,.8-.3,1-.9.5-1.4.9c-1.8,1.9-3.1,3.7-3.8,5.9-.6,2-1,3.3-.4,4.6.2.4,1.2,1.2,3.2,2.9,1.5,1.3,1.9,1.5,2.6,1.8.9.3,1.2.1,2.5.5,1.4.4,1.3.7,2.2.9,1,.2,2.6,0,3.2-.8.3-.4.1-.6.3-1.8.1-1,.3-2.3.8-3.1.5-.8,1.8-1.8,2.5-2.2.1,0,.5-.2.6-.6,0-.2,0-.3,0-.4-.1-1.3-.3-2.3-1.2-3.5-.3-.3-.4-.3-1-.8-.4-.3-2.5-2-3.1-4.2-.3-1,0-1.9,0-2.6,1.2-5.9,3.5-11.2,3.5-11.2.9-2,1.5-4.1,2.6-7.2,0-.3.2-.7.3-1.2.7-2.9,1.7-5.5,3.9-7.6.3-.3.6-.4.9-.6,1.1-.5,2.5-.8,3.7-1.1.6-.1,1.1-.2,1.6-.3,1.5-.4,2.8-.7,4.3-1.1,2.7-.6,5.4-1.2,8.1-1.6,2.4.2,3.6,1.2,3.6,3.6,0,.3,0,.2,0,.4,0,.1,0,.2-.1.3-.4,1.2-1,2.3-1.5,3.5-.6,1.4-1.2,2.6-1.7,4.1-.6,1.5-1.3,3.4-1.8,5-1.5,4.8-4.1,11.5-6.7,15.2-3.4,4.9-5.3,7.7-6.7,12.2-.7,2.2-1,4.1-.9,6,0,1.8.4,1.7.6,4,.6,5.2-.6,9.2-.9,10.2-.3.9-.4.7-.8,2.1-.7,2.4-1.3,4.6-1.8,7-.7,2.7-1.4,5.5-2.2,8.2,0,.2,0,.3-.2.5-.9,2.4-2,4-4.3,5.2-.2,0-.5.2-.8.3-.2,0-.6,0-.8,0-1.3,0-2.5-.3-3.7-.2-4.1.2-7.5.9-11.4,2.5-1.2.5-2.5,1.3-3.9,2.1Z"/>
        <path d="M117.9,138.7c3,4.6,5.5,9.3,7.5,14.3H8.5c-2.6,0-4.7-2.1-4.7-4.7v-15.6c0-.5.3-1,.8-1.2,1.5-.6,3.3-.8,5.5-1.6.4-.1.5,0,.8,0,4-.5,8.5-.7,12.5-1,4.8-.3,10.5-.6,14.7-1.3,3.5-.6,5.1-.5,7.7-2.3,2.6-1.9,3.1-3.7,5-6.6,3.5-5.4,7-12.2,10.2-18.2.3-.5.7-1.4.8-1.9.4-1.1,1.4-3.1,1.9-3.8.2-.3.3-.4.3-.4h0c.9-1,1.9-1.6,3.4-1.8.2,0,.2,0,.4,0,.1,0,.3,0,.4,0,.1,0,.3,0,.4.1,2.7.9,5.4,1.8,8.2,2.7,7.3,2.4,14.5,4.9,21.6,7.8.1,0,.4.2.5.2,2.4,1,5.3,2.3,6.8,4.3,1.2,1.5.9,2.5,1.4,4,0,.1,0,.2,0,.3.3,1.7.4,3.4.6,5,.4,3.2.5,6.1,1.7,9.2,1.2,3.1,3.3,5.5,5.5,8.2,1.1,1.3,2.3,2.6,3.4,4.2Z"/>
        <path d="M149.9,11.6v31.3c0,.9-.5,1.7-1.2,2.1-2.2,1.2-5.1,1.9-7.6,2.5-1.7.4-6.6,2.1-8,2.5-3.3.8-5.7,1.9-8.5.9-4.5-1.7-5.1-5-6.9-9.1-1-2.2-1.9-5.1-2.7-7.5-2.2-6.1-4.4-11.8-8.9-16.7-.3-.4-1.4-1.1-1.9-1.4-3.1-1.9-7.4-4-8.8-7.2l-.5-1.1c-.2-.5.2-1.1.7-1.1h49.6c2.6,0,4.7,2.1,4.7,4.7Z"/>
        <path d="M137.4,59c3.8-2.5,8.4-5.6,12.5-8.4v97.6c0,2.6-2.1,4.7-4.7,4.7h-5.6c-3-2-4.2-5.1-5.5-8.5-.2-.5-.3-.8-.4-1.2-2.7-8.1-5.2-16.1-7.6-24.3-1.9-6.3-3.8-12.7-5.9-19,0-.3,0-.5-.2-.8-1-1.8-.4-2.5-2-4.4-3.5-4-9.1-7.8-13.6-10.9-.9-.6-1.5-1-2.1-1.5-4.3-3-8.4-5.9-12.8-8.7,0,0,0,0-.1,0-1.3-.8-2.6-1.6-4-2.2-.3-.1-.6-.2-.9-.3-.2-.1-.5-.5-.6-.7-1.7-2.3-.4-5,.6-7,.6-1.2,1.6-3,1.8-3.4,1.3-2.2,2.3-3.7,3.4-5.5,1-1.5,1.8-2.8,2.6-4.3.8-1.4,1.4-2.6,2.2-4.1.9-1.7,1.7-3.4,2.7-5.1.2-.3.5-.9.8-1.2.4,0,.9-.3,1.3-.3.4,0,.5-.1.9,0,1.5.4,2.3.9,3.3,2.2,1,1.3,2,3.4,2.7,4.9.4.9,1,2.1,1.4,2.8,1.6,3.1,4.1,7.5,5.7,10,2.4,3.5,3.6,5,6.9,6.9,0,0,0,0,0,0,6.9-.6,11.5-3.6,17.4-7.6Z"/>
      </g>
    </g>
  </g>
</svg>